<?xml version="1.0" encoding="utf-8"?>
<!-- Generator: Adobe Illustrator 16.0.0, SVG Export Plug-In . SVG Version: 6.00 Build 0)  -->
<!DOCTYPE svg PUBLIC "-//W3C//DTD SVG 1.1//EN" "http://www.w3.org/Graphics/SVG/1.1/DTD/svg11.dtd">
<svg version="1.1" xmlns="http://www.w3.org/2000/svg" xmlns:xlink="http://www.w3.org/1999/xlink" x="0px" y="0px" width="960px"
	 height="560px" viewBox="0 0 960 560" enable-background="new 0 0 960 560" xml:space="preserve">
<g id="Room_Border_1_">
	<rect id="Room_Border" x="74.5" y="53.5" fill="#F2F2F2" stroke="#808080" stroke-miterlimit="10" width="811" height="454"/>
</g>
<g id="Tables">
	
		<circle id="CT-3" fill="#BFCFFF" stroke="#FFE9EA" stroke-width="2" stroke-miterlimit="10" cx="668.652" cy="448.445" r="37.195"/>
	
		<circle id="CT-2" fill="#BFCFFF" stroke="#FFE9EA" stroke-width="2" stroke-miterlimit="10" cx="479.652" cy="451.445" r="37.195"/>
	
		<circle id="CT-2_1_" fill="#BFCFFF" stroke="#FFE9EA" stroke-width="4" stroke-miterlimit="10" cx="276.652" cy="449.445" r="37.195"/>
	<g id="Individual_Tables">
		
			<rect id="IT-8" x="813" y="61" fill="#BFCFFF" stroke="#FFE9EA" stroke-width="2" stroke-miterlimit="10" width="48" height="48"/>
		
			<rect id="IT-7" x="765" y="61" fill="#BFCFFF" stroke="#FFE9EA" stroke-width="2" stroke-miterlimit="10" width="48" height="48"/>
		
			<rect id="IT-6" x="717" y="61" fill="#BFCFFF" stroke="#FFE9EA" stroke-width="2" stroke-miterlimit="10" width="48" height="48"/>
		
			<rect id="IT-5" x="669" y="61" fill="#BFCFFF" stroke="#FFE9EA" stroke-width="2" stroke-miterlimit="10" width="48" height="48"/>
		
			<rect id="IT-4" x="243" y="61" fill="#BFCFFF" stroke="#FFE9EA" stroke-width="2" stroke-miterlimit="10" width="48" height="48"/>
		
			<rect id="IT-3" x="195" y="61" transform="matrix(0.9998 -0.0195 0.0195 0.9998 -1.6176 4.2913)" fill="#BFCFFF" stroke="#FFE9EA" stroke-width="2" stroke-miterlimit="10" width="48" height="48"/>
		
			<rect id="IT-2" x="147" y="61" fill="#BFCFFF" stroke="#FFE9EA" stroke-width="2" stroke-miterlimit="10" width="48" height="48"/>
		<rect id="IT-1" x="99" y="61" fill="#BFCFFF" stroke="#FFE9EA" stroke-width="2" stroke-miterlimit="10" width="48" height="48"/>
	</g>
	<g id="Rectangle_Tables">
		
			<rect id="RT-8" x="480" y="306" fill="#BFCFFF" stroke="#FFE9EA" stroke-width="2" stroke-miterlimit="10" width="183" height="15"/>
		
			<rect id="RT-7" x="297" y="306" fill="#BFCFFF" stroke="#FFE9EA" stroke-width="2" stroke-miterlimit="10" width="183" height="15"/>
		
			<rect id="RT-6" x="480" y="291" fill="#BFCFFF" stroke="#FFE9EA" stroke-width="2" stroke-miterlimit="10" width="183" height="15"/>
		
			<rect id="RT-5" x="297" y="291" fill="#BFCFFF" stroke="#FFE9EA" stroke-width="2" stroke-miterlimit="10" width="183" height="15"/>
		
			<rect id="RT-4" x="480" y="220" fill="#BFCFFF" stroke="#FFE9EA" stroke-width="2" stroke-miterlimit="10" width="183" height="15"/>
		
			<rect id="RT-3" x="297" y="220" fill="#BFCFFF" stroke="#FFE9EA" stroke-width="2" stroke-miterlimit="10" width="183" height="15"/>
		
			<rect id="RT-2" x="480" y="205" fill="#BFCFFF" stroke="#FFE9EA" stroke-width="2" stroke-miterlimit="10" width="183" height="15"/>
		
			<rect id="RT-1" x="297" y="205" fill="#BFCFFF" stroke="#FFE9EA" stroke-width="2" stroke-miterlimit="10" width="183" height="15"/>
	</g>
</g>
<g id="Seats">
	<path id="S66" fill="#C1272D" stroke="#FFE9EA" stroke-width="2" stroke-miterlimit="10" d="M626.375,457.052
		c-4.941,3.034-11.407,1.494-14.443-3.445c-3.037-4.942-1.493-11.409,3.449-14.442c4.941-3.039,11.405-1.493,14.443,3.448
		C632.857,447.551,631.314,454.017,626.375,457.052z"/>
	<path id="S65" fill="#C1272D" stroke="#FFE9EA" stroke-width="2" stroke-miterlimit="10" d="M653.023,489.268
		c0.156,5.795-4.41,10.625-10.206,10.785c-5.799,0.159-10.627-4.412-10.782-10.209c-0.162-5.799,4.409-10.623,10.207-10.783
		C648.036,478.902,652.864,483.473,653.023,489.268z"/>
	<path id="S64" fill="#C1272D" stroke="#FFE9EA" stroke-width="2" stroke-miterlimit="10" d="M696.294,482.846
		c5.097,2.762,6.996,9.132,4.237,14.23c-2.762,5.102-9.135,6.998-14.232,4.234c-5.104-2.76-6.996-9.131-4.235-14.231
		C684.824,481.982,691.195,480.086,696.294,482.846z"/>
	<path id="S63" fill="#C1272D" stroke="#FFE9EA" stroke-width="2" stroke-miterlimit="10" d="M712.367,442.161
		c4.94-3.032,11.406-1.493,14.443,3.446c3.037,4.941,1.492,11.409-3.449,14.442c-4.942,3.04-11.406,1.493-14.443-3.448
		C705.885,451.662,707.428,445.197,712.367,442.161z"/>
	<path id="S62" fill="#C1272D" stroke="#FFE9EA" stroke-width="2" stroke-miterlimit="10" d="M687.769,406.398
		c-0.155-5.794,4.41-10.624,10.207-10.785c5.797-0.158,10.627,4.413,10.782,10.209c0.161,5.801-4.409,10.625-10.208,10.784
		C692.756,416.764,687.929,412.195,687.769,406.398z"/>
	<path id="S61" fill="#C1272D" stroke="#FFE9EA" stroke-width="2" stroke-miterlimit="10" d="M641.899,411.32
		c-5.095-2.762-6.995-9.131-4.237-14.231c2.762-5.1,9.137-6.997,14.232-4.233c5.105,2.761,6.998,9.131,4.236,14.232
		C653.369,412.184,647,414.08,641.899,411.32z"/>
	<path id="S60" fill="#C1272D" stroke="#FFE9EA" stroke-width="2" stroke-miterlimit="10" d="M437.375,460.052
		c-4.941,3.034-11.407,1.494-14.443-3.445c-3.038-4.942-1.494-11.409,3.449-14.442c4.941-3.039,11.405-1.493,14.442,3.448
		C443.857,450.551,442.314,457.017,437.375,460.052z"/>
	<path id="S59" fill="#C1272D" stroke="#FFE9EA" stroke-width="2" stroke-miterlimit="10" d="M464.023,492.268
		c0.156,5.795-4.41,10.625-10.206,10.785c-5.799,0.159-10.627-4.412-10.782-10.209c-0.162-5.799,4.409-10.623,10.207-10.783
		C459.036,481.902,463.864,486.473,464.023,492.268z"/>
	<path id="S58" fill="#C1272D" stroke="#FFE9EA" stroke-width="2" stroke-miterlimit="10" d="M507.294,485.846
		c5.097,2.762,6.996,9.132,4.237,14.23c-2.762,5.102-9.135,6.998-14.232,4.234c-5.104-2.76-6.996-9.131-4.235-14.231
		C495.824,484.982,502.195,483.086,507.294,485.846z"/>
	<path id="S57" fill="#C1272D" stroke="#FFE9EA" stroke-width="2" stroke-miterlimit="10" d="M523.367,445.161
		c4.94-3.032,11.406-1.493,14.443,3.446c3.037,4.941,1.492,11.409-3.449,14.442c-4.942,3.04-11.406,1.493-14.443-3.448
		C516.885,454.662,518.428,448.197,523.367,445.161z"/>
	<path id="S56" fill="#C1272D" stroke="#FFE9EA" stroke-width="2" stroke-miterlimit="10" d="M498.769,409.398
		c-0.155-5.794,4.41-10.624,10.207-10.785c5.797-0.158,10.627,4.413,10.782,10.209c0.161,5.801-4.409,10.625-10.208,10.784
		C503.756,419.764,498.929,415.195,498.769,409.398z"/>
	<path id="S55" fill="#C1272D" stroke="#FFE9EA" stroke-width="2" stroke-miterlimit="10" d="M452.899,414.32
		c-5.095-2.762-6.995-9.131-4.237-14.231c2.762-5.1,9.137-6.997,14.232-4.233c5.105,2.761,6.998,9.131,4.236,14.232
		C464.369,415.184,458,417.08,452.899,414.32z"/>
	<path id="S54" fill="#C1272D" stroke="#FFE9EA" stroke-width="4" stroke-miterlimit="10" d="M234.375,458.052
		c-4.941,3.034-11.407,1.494-14.443-3.445c-3.038-4.942-1.494-11.409,3.449-14.442c4.941-3.039,11.405-1.493,14.442,3.448
		C240.857,448.551,239.314,455.017,234.375,458.052z"/>
	<path id="S53" fill="#C1272D" stroke="#FFE9EA" stroke-width="4" stroke-miterlimit="10" d="M261.023,490.268
		c0.156,5.795-4.41,10.625-10.206,10.785c-5.799,0.159-10.627-4.412-10.782-10.209c-0.162-5.799,4.409-10.623,10.207-10.783
		C256.036,479.902,260.864,484.473,261.023,490.268z"/>
	<path id="S52_1_" fill="#C1272D" stroke="#FFE9EA" stroke-width="4" stroke-miterlimit="10" d="M304.294,483.846
		c5.097,2.762,6.996,9.132,4.237,14.23c-2.762,5.102-9.135,6.998-14.232,4.234c-5.104-2.76-6.996-9.131-4.235-14.231
		C292.824,482.982,299.195,481.086,304.294,483.846z"/>
	<path id="S51_1_" fill="#C1272D" stroke="#FFE9EA" stroke-width="4" stroke-miterlimit="10" d="M320.367,443.161
		c4.94-3.032,11.406-1.493,14.443,3.446c3.037,4.941,1.492,11.409-3.449,14.442c-4.942,3.04-11.406,1.493-14.443-3.448
		C313.885,452.662,315.428,446.197,320.367,443.161z"/>
	<path id="S50_1_" fill="#C1272D" stroke="#FFE9EA" stroke-width="4" stroke-miterlimit="10" d="M295.769,407.398
		c-0.155-5.794,4.41-10.624,10.207-10.785c5.797-0.158,10.627,4.413,10.782,10.209c0.161,5.801-4.409,10.625-10.208,10.784
		C300.756,417.764,295.929,413.195,295.769,407.398z"/>
	<path id="S49_1_" fill="#C1272D" stroke="#FFE9EA" stroke-width="4" stroke-miterlimit="10" d="M249.899,412.32
		c-5.095-2.762-6.995-9.131-4.237-14.231c2.762-5.1,9.137-6.997,14.232-4.233c5.105,2.761,6.998,9.131,4.236,14.232
		C261.369,413.184,255,415.08,249.899,412.32z"/>
	<circle id="S48" fill="#C1272D" stroke="#FFE9EA" stroke-width="2" stroke-miterlimit="10" cx="629.253" cy="331.707" r="10.5"/>
	<circle id="S47" fill="#C1272D" stroke="#FFE9EA" stroke-width="2" stroke-miterlimit="10" cx="599.253" cy="331.707" r="10.5"/>
	<circle id="S46" fill="#C1272D" stroke="#FFE9EA" stroke-width="2" stroke-miterlimit="10" cx="571.253" cy="331.707" r="10.5"/>
	<circle id="S45" fill="#C1272D" stroke="#FFE9EA" stroke-width="2" stroke-miterlimit="10" cx="544.253" cy="331.707" r="10.5"/>
	<circle id="S44" fill="#C1272D" stroke="#FFE9EA" stroke-width="2" stroke-miterlimit="10" cx="516.253" cy="331.707" r="10.5"/>
	<circle id="S43" fill="#C1272D" stroke="#FFE9EA" stroke-width="2" stroke-miterlimit="10" cx="444.253" cy="331.707" r="10.5"/>
	<circle id="S42" fill="#C1272D" stroke="#FFE9EA" stroke-width="2" stroke-miterlimit="10" cx="414.253" cy="331.707" r="10.5"/>
	<circle id="S41" fill="#C1272D" stroke="#FFE9EA" stroke-width="2" stroke-miterlimit="10" cx="386.253" cy="331.707" r="10.5"/>
	<circle id="S40" fill="#C1272D" stroke="#FFE9EA" stroke-width="2" stroke-miterlimit="10" cx="359.253" cy="331.707" r="10.5"/>
	<circle id="S39" fill="#C1272D" stroke="#FFE9EA" stroke-width="2" stroke-miterlimit="10" cx="332.253" cy="331.707" r="10.5"/>
	<circle id="S38" fill="#C1272D" stroke="#FFE9EA" stroke-width="2" stroke-miterlimit="10" cx="629.253" cy="280.707" r="10.5"/>
	<circle id="S37" fill="#C1272D" stroke="#FFE9EA" stroke-width="2" stroke-miterlimit="10" cx="599.253" cy="280.707" r="10.5"/>
	<circle id="S36" fill="#C1272D" stroke="#FFE9EA" stroke-width="2" stroke-miterlimit="10" cx="571.253" cy="280.707" r="10.5"/>
	<circle id="S35" fill="#C1272D" stroke="#FFE9EA" stroke-width="2" stroke-miterlimit="10" cx="544.253" cy="280.707" r="10.5"/>
	<circle id="S34" fill="#C1272D" stroke="#FFE9EA" stroke-width="2" stroke-miterlimit="10" cx="516.253" cy="280.707" r="10.5"/>
	<circle id="S33" fill="#C1272D" stroke="#FFE9EA" stroke-width="2" stroke-miterlimit="10" cx="444.253" cy="280.707" r="10.5"/>
	<circle id="S32" fill="#C1272D" stroke="#FFE9EA" stroke-width="2" stroke-miterlimit="10" cx="414.253" cy="280.707" r="10.5"/>
	<circle id="S31" fill="#C1272D" stroke="#FFE9EA" stroke-width="2" stroke-miterlimit="10" cx="386.253" cy="280.707" r="10.5"/>
	<circle id="S30" fill="#C1272D" stroke="#FFE9EA" stroke-width="2" stroke-miterlimit="10" cx="359.253" cy="280.707" r="10.5"/>
	<circle id="S29" fill="#C1272D" stroke="#FFE9EA" stroke-width="2" stroke-miterlimit="10" cx="331.253" cy="280.707" r="10.5"/>
	<circle id="S28" fill="#C1272D" stroke="#FFE9EA" stroke-width="2" stroke-miterlimit="10" cx="629.253" cy="249.707" r="10.5"/>
	<circle id="S27" fill="#C1272D" stroke="#FFE9EA" stroke-width="2" stroke-miterlimit="10" cx="599.253" cy="249.707" r="10.5"/>
	<circle id="S26" fill="#C1272D" stroke="#FFE9EA" stroke-width="2" stroke-miterlimit="10" cx="571.253" cy="249.707" r="10.5"/>
	<circle id="S25" fill="#C1272D" stroke="#FFE9EA" stroke-width="2" stroke-miterlimit="10" cx="544.253" cy="249.707" r="10.5"/>
	<circle id="S24" fill="#C1272D" stroke="#FFE9EA" stroke-width="2" stroke-miterlimit="10" cx="516.253" cy="249.707" r="10.5"/>
	<circle id="S23" fill="#C1272D" stroke="#FFE9EA" stroke-width="2" stroke-miterlimit="10" cx="444.253" cy="249.707" r="10.5"/>
	<circle id="S22" fill="#C1272D" stroke="#FFE9EA" stroke-width="2" stroke-miterlimit="10" cx="414.253" cy="249.707" r="10.5"/>
	<circle id="S21" fill="#C1272D" stroke="#FFE9EA" stroke-width="2" stroke-miterlimit="10" cx="386.253" cy="249.707" r="10.5"/>
	<circle id="S20" fill="#C1272D" stroke="#FFE9EA" stroke-width="2" stroke-miterlimit="10" cx="359.253" cy="249.707" r="10.5"/>
	<circle id="S19" fill="#C1272D" stroke="#FFE9EA" stroke-width="2" stroke-miterlimit="10" cx="331.253" cy="249.707" r="10.5"/>
	<circle id="S18" fill="#C1272D" stroke="#FFE9EA" stroke-width="2" stroke-miterlimit="10" cx="627.253" cy="194.707" r="10.5"/>
	<circle id="S17" fill="#C1272D" stroke="#FFE9EA" stroke-width="2" stroke-miterlimit="10" cx="597.253" cy="194.707" r="10.5"/>
	<circle id="S16" fill="#C1272D" stroke="#FFE9EA" stroke-width="2" stroke-miterlimit="10" cx="569.253" cy="194.707" r="10.5"/>
	<circle id="S15" fill="#C1272D" stroke="#FFE9EA" stroke-width="2" stroke-miterlimit="10" cx="542.253" cy="194.707" r="10.5"/>
	<circle id="S14" fill="#C1272D" stroke="#FFE9EA" stroke-width="2" stroke-miterlimit="10" cx="514.253" cy="194.707" r="10.5"/>
	<circle id="S13" fill="#C1272D" stroke="#FFE9EA" stroke-width="2" stroke-miterlimit="10" cx="445.253" cy="194.707" r="10.5"/>
	<circle id="S12" fill="#C1272D" stroke="#FFE9EA" stroke-width="2" stroke-miterlimit="10" cx="415.253" cy="194.707" r="10.5"/>
	<circle id="S11" fill="#C1272D" stroke="#FFE9EA" stroke-width="2" stroke-miterlimit="10" cx="387.253" cy="194.707" r="10.5"/>
	<circle id="S10" fill="#C1272D" stroke="#FFE9EA" stroke-width="2" stroke-miterlimit="10" cx="360.253" cy="194.707" r="10.5"/>
	<circle id="S9" fill="#C1272D" stroke="#FFE9EA" stroke-width="2" stroke-miterlimit="10" cx="332.253" cy="194.707" r="10.5"/>
	<circle id="S8" fill="#C1272D" stroke="#FFE9EA" stroke-width="2" stroke-miterlimit="10" cx="837.253" cy="120.707" r="10.5"/>
	<circle id="S7" fill="#C1272D" stroke="#FFE9EA" stroke-width="2" stroke-miterlimit="10" cx="789.253" cy="120.707" r="10.5"/>
	<circle id="S6" fill="#C1272D" stroke="#FFE9EA" stroke-width="2" stroke-miterlimit="10" cx="741.253" cy="120.707" r="10.5"/>
	<circle id="S5" fill="#C1272D" stroke="#FFE9EA" stroke-width="2" stroke-miterlimit="10" cx="692.253" cy="120.707" r="10.5"/>
	<circle id="S4" fill="#C1272D" stroke="#FFE9EA" stroke-width="2" stroke-miterlimit="10" cx="267.254" cy="120.707" r="10.499"/>
	<circle id="S3" fill="#C1272D" stroke="#FFE9EA" stroke-width="2" stroke-miterlimit="10" cx="219.254" cy="120.707" r="10.499"/>
	<circle id="S2" fill="#C1272D" stroke="#FFE9EA" stroke-width="2" stroke-miterlimit="10" cx="171.254" cy="120.707" r="10.499"/>
	<circle id="S1" fill="#C1272D" stroke="#FFE9EA" stroke-width="2" stroke-miterlimit="10" cx="123.254" cy="120.707" r="10.499"/>
</g>
</svg>
